<svg width="760" height="358" viewBox="0 0 760 358" fill="none" xmlns="http://www.w3.org/2000/svg">
<path d="M372.761 249.255H301.244V312.035L305.507 324.686H367.25L372.803 312.035L372.761 249.255Z" fill="#A79BA7"/>
<path d="M336.674 291.122H372.789L372.76 249.255H324.522H301.243V291.122V312.035L305.506 324.686H328.785L324.522 312.035V303.274C324.522 296.563 329.963 291.122 336.674 291.122Z" fill="#918291"/>
<path d="M473.848 76.6631H200.199C192.383 76.6631 186.047 82.9993 186.047 90.8088V254.309C185.987 254.416 185.982 254.476 186.047 254.476C187.278 254.476 215.065 268.252 215.065 268.252H477.038L488 254.476V90.8088C488 82.9993 481.664 76.6631 473.848 76.6631Z" fill="#C8EFFE"/>
<path d="M228.517 254.348V77.2816C228.517 77.0742 228.523 76.8687 228.532 76.6631H200.199C192.383 76.6631 186.047 82.9993 186.047 90.8088V254.309C185.987 254.416 185.982 254.476 186.047 254.476C187.278 254.476 215.065 268.252 215.065 268.252H240.034C233.478 267.016 228.517 261.263 228.517 254.348Z" fill="#99E6FC"/>
<path d="M488 254.476V267.876C488 275.691 481.664 282.027 473.848 282.027H200.199C192.383 282.027 186.047 275.691 186.047 267.876V254.476H187.278H488Z" fill="#B5ADB6"/>
<path d="M242.668 268.5C234.895 268.5 228.589 262.232 228.52 254.476H187.278H186.047V267.876C186.047 275.691 192.383 282.027 200.199 282.027H473.848C481.455 282.027 487.657 276.026 487.984 268.5H242.668Z" fill="#A79BA7"/>
<path d="M400.519 331.298C403.186 333.153 401.877 337.337 398.633 337.337H275.414C272.171 337.337 270.861 333.153 273.529 331.298L301.244 312.035H352.443H372.803L400.519 331.298Z" fill="#B5ADB6"/>
<path d="M296.869 331.298L324.585 312.035H301.244L273.529 331.298C270.861 333.153 272.171 337.337 275.414 337.337H298.755C295.511 337.337 294.202 333.153 296.869 331.298Z" fill="#A79BA7"/>
<path d="M282.424 136.362V136.356C275.857 132.846 268.351 130.857 260.377 130.857C234.499 130.857 213.514 151.836 213.514 177.72C213.514 187.209 216.334 196.038 221.19 203.417L247.969 206.422L288.537 173.492L282.424 136.362Z" fill="#FD8087"/>
<path d="M213.514 177.72C213.514 187.209 216.334 196.038 221.19 203.417L228.517 204.239V143.366C219.293 151.925 213.514 164.145 213.514 177.72Z" fill="#FE646F"/>
<path d="M307.241 177.72C307.241 183.929 306.034 189.853 303.839 195.274L260.377 177.72L282.424 136.362C297.194 144.239 307.241 159.803 307.241 177.72Z" fill="#86E8D0"/>
<path d="M260.377 177.72L303.839 195.274C296.897 212.457 280.053 224.584 260.377 224.584C243.988 224.584 229.558 216.168 221.19 203.417L260.377 177.72Z" fill="#FFDE55"/>
<path d="M457.278 136.355H346.486C344.235 136.355 342.409 134.53 342.409 132.278V117.276C342.409 115.025 344.234 113.199 346.486 113.199H457.278C459.53 113.199 461.355 115.024 461.355 117.276V132.278C461.355 134.529 459.53 136.355 457.278 136.355Z" fill="#99E6FC"/>
<path d="M412.499 181.463H346.486C344.235 181.463 342.409 179.638 342.409 177.386V162.384C342.409 160.133 344.234 158.307 346.486 158.307H412.499C414.75 158.307 416.576 160.132 416.576 162.384V177.386C416.576 179.638 414.75 181.463 412.499 181.463Z" fill="#99E6FC"/>
<path d="M384.303 226.571H346.486C344.235 226.571 342.409 224.745 342.409 222.494V207.492C342.409 205.241 344.234 203.415 346.486 203.415H384.303C386.554 203.415 388.38 205.24 388.38 207.492V222.494C388.379 224.745 386.554 226.571 384.303 226.571Z" fill="#99E6FC"/>
<path d="M649.426 326.351C648.456 327.643 647.002 330.657 645.063 330.657H422.101C420.647 330.657 418.708 327.643 417.739 326.351C417.739 326.351 414.346 335.825 422.101 335.825H645.063C652.334 336.255 649.426 326.351 649.426 326.351Z" fill="#CDD6E0"/>
<path d="M626.16 288.886H441.004C438.096 288.886 435.188 291.039 433.734 293.623L418.224 324.628C417.254 328.073 418.709 331.088 422.101 331.088H645.063C648.456 331.088 650.395 328.073 648.941 324.628L633.431 293.623C632.461 291.039 629.068 288.886 626.16 288.886Z" fill="#ACB3BA"/>
<path d="M558.302 324.198H504.5L510.316 308.264H552.97L558.302 324.198Z" fill="#CDD6E0"/>
<path d="M620.828 288.886H446.336C441.004 288.886 436.642 285.01 436.642 280.273V177.783C436.642 173.046 441.004 169.171 446.336 169.171H620.828C626.16 169.171 630.522 173.046 630.522 177.783V280.273C630.522 285.01 626.16 288.886 620.828 288.886Z" fill="#334A5E"/>
<path d="M619.861 178.645H446.823V279.845H619.861V178.645Z" fill="#40596B"/>
<path d="M482.689 224.293H455.061V233.337H482.689V224.293Z" fill="#FFD15C"/>
<path d="M561.21 224.293H493.354V233.337H561.21V224.293Z" fill="#4CDBC4"/>
<path d="M612.59 224.293H571.389V233.337H612.59V224.293Z" fill="#4CDBC4"/>
<path d="M512.257 251.851H455.061V260.894H512.257V251.851Z" fill="#FF7058"/>
<path d="M575.265 251.851H522.918V260.894H575.265V251.851Z" fill="#CDD6E0"/>
<path d="M612.59 251.851H584.962V260.894H612.59V251.851Z" fill="#FF7058"/>
<path d="M490.932 196.731H454.093V205.775H490.932V196.731Z" fill="#FF7058"/>
<path d="M613.072 196.731H583.99V205.775H613.072V196.731Z" fill="#FFD15C"/>
<path d="M573.325 196.731H501.106V205.775H573.325V196.731Z" fill="#CDD6E0"/>
<path d="M734.114 317.749H719.582C717.742 317.749 716.25 316.257 716.25 314.417C716.25 312.577 717.742 311.085 719.582 311.085H734.114C737.216 311.085 739.739 308.562 739.739 305.46V286.535C739.739 283.433 737.216 280.91 734.114 280.91H719.582C717.742 280.91 716.25 279.418 716.25 277.578C716.25 275.738 717.742 274.246 719.582 274.246H734.114C740.891 274.246 746.404 279.759 746.404 286.535V305.461C746.404 312.236 740.891 317.749 734.114 317.749Z" fill="#E53950"/>
<path d="M719.608 333H679.926C675.326 333 671.596 329.271 671.596 324.67V261.336C671.596 260.14 672.566 259.171 673.762 259.171H725.772C726.968 259.171 727.938 260.14 727.938 261.336V324.67C727.938 329.271 724.209 333 719.608 333Z" fill="#E53950"/>
<path d="M690.959 269.609L682.498 278.823C682.046 279.315 681.796 279.958 681.796 280.626V296.912C681.796 297.832 682.542 298.578 683.462 298.578H698.456C699.376 298.578 700.122 297.832 700.122 296.912V280.626C700.122 279.958 699.871 279.314 699.42 278.823L690.959 269.609Z" fill="#E5EEF9"/>
<path d="M690.959 276.699C690.121 276.699 689.442 276.02 689.442 275.183V259.171C689.442 258.333 690.121 257.654 690.959 257.654C691.796 257.654 692.475 258.333 692.475 259.171V275.183C692.475 276.02 691.796 276.699 690.959 276.699Z" fill="#7A8C98"/>
<path d="M698.554 255.282C697.717 255.282 697.038 254.603 697.038 253.765C697.038 251.525 697.858 250.328 698.516 249.367C699.067 248.564 699.464 247.983 699.464 246.682C699.464 245.381 699.066 244.8 698.516 243.997C697.858 243.036 697.038 241.839 697.038 239.599C697.038 237.358 697.858 236.162 698.517 235.201C699.067 234.398 699.464 233.817 699.464 232.516C699.464 231.679 700.143 231 700.981 231C701.818 231 702.497 231.679 702.497 232.516C702.497 234.757 701.677 235.953 701.018 236.915C700.468 237.717 700.071 238.298 700.071 239.599C700.071 240.9 700.468 241.48 701.018 242.283C701.677 243.245 702.497 244.441 702.497 246.682C702.497 248.922 701.677 250.119 701.018 251.08C700.468 251.883 700.071 252.464 700.071 253.765C700.07 254.603 699.392 255.282 698.554 255.282Z" fill="#B3CEEC"/>
<path d="M687.092 255.282C686.254 255.282 685.576 254.603 685.576 253.765C685.576 251.525 686.395 250.328 687.054 249.367C687.604 248.564 688.002 247.983 688.002 246.682C688.002 245.381 687.604 244.8 687.054 243.997C686.395 243.036 685.576 241.839 685.576 239.599C685.576 237.358 686.395 236.162 687.054 235.201C687.604 234.398 688.002 233.817 688.002 232.516C688.002 231.679 688.681 231 689.518 231C690.356 231 691.034 231.679 691.034 232.516C691.034 234.757 690.215 235.953 689.556 236.915C689.006 237.717 688.608 238.298 688.608 239.599C688.608 240.9 689.006 241.48 689.556 242.283C690.214 243.245 691.034 244.441 691.034 246.682C691.034 248.922 690.214 250.119 689.556 251.08C689.006 251.883 688.608 252.464 688.608 253.765C688.608 254.603 687.929 255.282 687.092 255.282Z" fill="#B3CEEC"/>
<path d="M710.016 255.282C709.179 255.282 708.5 254.603 708.5 253.765C708.5 251.525 709.32 250.328 709.978 249.367C710.528 248.564 710.926 247.983 710.926 246.682C710.926 245.381 710.528 244.8 709.978 243.997C709.32 243.036 708.5 241.839 708.5 239.599C708.5 237.358 709.32 236.162 709.978 235.201C710.528 234.398 710.926 233.817 710.926 232.516C710.926 231.679 711.605 231 712.442 231C713.28 231 713.959 231.679 713.959 232.516C713.959 234.757 713.139 235.953 712.48 236.915C711.93 237.717 711.532 238.298 711.532 239.599C711.532 240.9 711.93 241.48 712.48 242.283C713.139 243.245 713.959 244.441 713.959 246.682C713.959 248.922 713.139 250.119 712.48 251.08C711.93 251.883 711.532 252.464 711.532 253.765C711.533 254.603 710.854 255.282 710.016 255.282Z" fill="#B3CEEC"/>
<path d="M734.115 274.246H726.091C731.295 274.246 735.751 277.499 737.54 282.077C738.876 283.107 739.739 284.721 739.739 286.535V305.46C739.739 307.274 738.876 308.888 737.54 309.918C735.751 314.496 731.295 317.749 726.091 317.749H734.115C740.891 317.749 746.404 312.236 746.404 305.46V286.535C746.404 279.759 740.891 274.246 734.115 274.246Z" fill="#CA2E43"/>
<path d="M725.772 259.17H717.749C718.945 259.17 719.914 260.14 719.914 261.336V324.67C719.914 329.27 716.185 333 711.584 333H719.608C724.209 333 727.938 329.27 727.938 324.67V261.336C727.938 260.14 726.968 259.17 725.772 259.17Z" fill="#CA2E43"/>
<path d="M203.069 211H150.931C147.332 211 144.414 213.918 144.414 217.517V330.483C144.414 334.082 147.332 337 150.931 337H203.069C206.668 337 209.586 334.082 209.586 330.483V217.517C209.586 213.918 206.668 211 203.069 211ZM168.31 219.69C168.31 218.49 169.283 217.517 170.483 217.517H183.518C184.717 217.517 185.69 218.49 185.69 219.69C185.69 220.889 184.717 221.862 183.518 221.862H170.483C169.283 221.862 168.31 220.889 168.31 219.69ZM161.793 217.517C162.993 217.517 163.966 218.49 163.966 219.69C163.966 220.89 162.993 221.862 161.793 221.862C160.593 221.862 159.621 220.89 159.621 219.69C159.621 218.49 160.593 217.517 161.793 217.517ZM177 332.655C174.6 332.655 172.655 330.71 172.655 328.31C172.655 325.911 174.6 323.966 177 323.966C179.4 323.966 181.345 325.911 181.345 328.31C181.345 330.71 179.4 332.655 177 332.655ZM205.241 293.552V319.621H148.759V293.552V228.379H205.241V293.552H205.241Z" fill="#707384"/>
<path d="M148.759 293.552H166.138C166.138 292.352 167.111 291.379 168.31 291.379C169.51 291.379 170.483 292.352 170.483 293.552H174.828C174.828 292.352 175.801 291.379 177 291.379C178.2 291.379 179.173 292.352 179.173 293.552H183.518C183.518 292.352 184.49 291.379 185.69 291.379C186.89 291.379 187.863 292.352 187.863 293.552H205.242V228.379H148.759V293.552ZM187.862 239.241C187.862 238.042 188.835 237.069 190.035 237.069H198.724C199.924 237.069 200.897 238.042 200.897 239.241V247.931C200.897 249.131 199.924 250.104 198.724 250.104H190.035C188.835 250.104 187.862 249.131 187.862 247.931V239.241ZM187.862 256.621C187.862 255.421 188.835 254.448 190.035 254.448H198.724C199.924 254.448 200.897 255.421 200.897 256.621V265.31C200.897 266.51 199.924 267.483 198.724 267.483H190.035C188.835 267.483 187.862 266.51 187.862 265.31V256.621ZM187.862 274C187.862 272.8 188.835 271.827 190.035 271.827H198.724C199.924 271.827 200.897 272.8 200.897 274V282.69C200.897 283.889 199.924 284.862 198.724 284.862H190.035C188.835 284.862 187.862 283.889 187.862 282.69V274ZM170.483 239.241C170.483 238.042 171.456 237.069 172.655 237.069H181.345C182.544 237.069 183.517 238.042 183.517 239.241V247.931C183.517 249.131 182.544 250.104 181.345 250.104H172.655C171.456 250.104 170.483 249.131 170.483 247.931V239.241ZM170.483 256.621C170.483 255.421 171.456 254.448 172.655 254.448H181.345C182.544 254.448 183.517 255.421 183.517 256.621V265.31C183.517 266.51 182.544 267.483 181.345 267.483H172.655C171.456 267.483 170.483 266.51 170.483 265.31V256.621ZM170.483 274C170.483 272.8 171.456 271.827 172.655 271.827H181.345C182.544 271.827 183.517 272.8 183.517 274V282.69C183.517 283.889 182.544 284.862 181.345 284.862H172.655C171.456 284.862 170.483 283.889 170.483 282.69V274ZM153.104 239.241C153.104 238.042 154.076 237.069 155.276 237.069H163.966C165.165 237.069 166.138 238.042 166.138 239.241V247.931C166.138 249.131 165.165 250.104 163.966 250.104H155.276C154.076 250.104 153.104 249.131 153.104 247.931V239.241ZM153.104 256.621C153.104 255.421 154.076 254.448 155.276 254.448H163.966C165.165 254.448 166.138 255.421 166.138 256.621V265.31C166.138 266.51 165.165 267.483 163.966 267.483H155.276C154.076 267.483 153.104 266.51 153.104 265.31V256.621ZM153.104 274C153.104 272.8 154.076 271.827 155.276 271.827H163.966C165.165 271.827 166.138 272.8 166.138 274V282.69C166.138 283.889 165.165 284.862 163.966 284.862H155.276C154.076 284.862 153.104 283.889 153.104 282.69V274Z" fill="#63AFDB"/>
<path d="M185.69 295.724C184.49 295.724 183.517 294.751 183.517 293.552H179.172C179.172 294.751 178.199 295.724 177 295.724C175.8 295.724 174.827 294.751 174.827 293.552H170.482C170.482 294.751 169.51 295.724 168.31 295.724C167.11 295.724 166.137 294.751 166.137 293.552H148.758V319.621H205.241V293.552H187.861C187.862 294.751 186.889 295.724 185.69 295.724ZM166.138 310.931C166.138 312.131 165.165 313.104 163.965 313.104H155.276C154.076 313.104 153.103 312.131 153.103 310.931V302.241C153.103 301.042 154.076 300.069 155.276 300.069H163.965C165.165 300.069 166.138 301.042 166.138 302.241V310.931ZM183.517 310.931C183.517 312.131 182.544 313.104 181.345 313.104H172.655C171.455 313.104 170.483 312.131 170.483 310.931V302.241C170.483 301.042 171.455 300.069 172.655 300.069H181.345C182.544 300.069 183.517 301.042 183.517 302.241V310.931ZM190.035 300.069H198.724C199.924 300.069 200.897 301.042 200.897 302.241V310.931C200.897 312.131 199.924 313.104 198.724 313.104H190.035C188.835 313.104 187.862 312.131 187.862 310.931V302.241C187.862 301.042 188.835 300.069 190.035 300.069Z" fill="#468CBE"/>
<path d="M170.483 221.862H183.517C184.717 221.862 185.69 220.889 185.69 219.69C185.69 218.49 184.717 217.517 183.517 217.517H170.483C169.283 217.517 168.31 218.49 168.31 219.69C168.31 220.889 169.283 221.862 170.483 221.862Z" fill="#464655"/>
<path d="M161.793 221.862C162.993 221.862 163.966 220.889 163.966 219.69C163.966 218.49 162.993 217.517 161.793 217.517C160.593 217.517 159.621 218.49 159.621 219.69C159.621 220.889 160.593 221.862 161.793 221.862Z" fill="#464655"/>
<path d="M177 332.655C179.4 332.655 181.345 330.71 181.345 328.31C181.345 325.911 179.4 323.966 177 323.966C174.6 323.966 172.655 325.911 172.655 328.31C172.655 330.71 174.6 332.655 177 332.655Z" fill="#464655"/>
<path d="M181.345 300.069H172.655C171.456 300.069 170.483 301.042 170.483 302.241V310.931C170.483 312.131 171.456 313.104 172.655 313.104H181.345C182.544 313.104 183.517 312.131 183.517 310.931V302.241C183.517 301.042 182.544 300.069 181.345 300.069ZM177 310.931C174.6 310.931 172.655 308.986 172.655 306.586C172.655 304.187 174.6 302.241 177 302.241C179.4 302.241 181.345 304.187 181.345 306.586C181.345 308.986 179.4 310.931 177 310.931Z" fill="#63AFDB"/>
<path d="M187.862 310.931C187.862 312.131 188.835 313.104 190.035 313.104H198.724C199.924 313.104 200.897 312.131 200.897 310.931V302.241C200.897 301.042 199.924 300.069 198.724 300.069H190.035C188.835 300.069 187.862 301.042 187.862 302.241V310.931Z" fill="#FF6469"/>
<path d="M163.965 300.069H155.276C154.076 300.069 153.103 301.042 153.103 302.241V310.931C153.103 312.131 154.076 313.104 155.276 313.104H163.965C165.165 313.104 166.138 312.131 166.138 310.931V302.241C166.138 301.042 165.165 300.069 163.965 300.069Z" fill="#00DCCD"/>
<path d="M172.655 284.862H181.345C182.544 284.862 183.517 283.889 183.517 282.69V274C183.517 272.8 182.544 271.827 181.345 271.827H172.655C171.456 271.827 170.483 272.8 170.483 274V282.69C170.483 283.889 171.456 284.862 172.655 284.862Z" fill="#FFDC69"/>
<path d="M190.035 284.862H198.724C199.924 284.862 200.897 283.889 200.897 282.69V274C200.897 272.8 199.924 271.827 198.724 271.827H190.035C188.835 271.827 187.862 272.8 187.862 274V282.69C187.862 283.889 188.835 284.862 190.035 284.862ZM190.035 278.345C190.035 277.145 191.007 276.172 192.207 276.172H196.552C197.752 276.172 198.724 277.145 198.724 278.345C198.724 279.544 197.752 280.517 196.552 280.517H192.207C191.007 280.517 190.035 279.544 190.035 278.345Z" fill="white"/>
<path d="M155.276 284.862H163.965C165.165 284.862 166.138 283.889 166.138 282.69V274C166.138 272.8 165.165 271.827 163.965 271.827H155.276C154.076 271.827 153.103 272.8 153.103 274V282.69C153.104 283.889 154.076 284.862 155.276 284.862ZM155.276 278.345C155.276 277.145 156.249 276.172 157.448 276.172H161.793C162.993 276.172 163.966 277.145 163.966 278.345C163.966 279.544 162.993 280.517 161.793 280.517H157.448C156.249 280.517 155.276 279.544 155.276 278.345Z" fill="#468CBE"/>
<path d="M172.655 267.483H181.345C182.544 267.483 183.517 266.51 183.517 265.31V256.621C183.517 255.421 182.544 254.448 181.345 254.448H172.655C171.456 254.448 170.483 255.421 170.483 256.621V265.31C170.483 266.51 171.456 267.483 172.655 267.483ZM172.655 260.965C172.655 259.766 173.628 258.793 174.828 258.793H179.173C180.372 258.793 181.345 259.766 181.345 260.965C181.345 262.165 180.372 263.138 179.173 263.138H174.828C173.628 263.138 172.655 262.165 172.655 260.965Z" fill="#464655"/>
<path d="M190.035 267.483H198.724C199.924 267.483 200.897 266.51 200.897 265.31V256.621C200.897 255.421 199.924 254.448 198.724 254.448H190.035C188.835 254.448 187.862 255.421 187.862 256.621V265.31C187.862 266.51 188.835 267.483 190.035 267.483Z" fill="#FFA055"/>
<path d="M155.276 267.483H163.965C165.165 267.483 166.138 266.51 166.138 265.31V256.621C166.138 255.421 165.165 254.448 163.965 254.448H155.276C154.076 254.448 153.103 255.421 153.103 256.621V265.31C153.104 266.51 154.076 267.483 155.276 267.483ZM159.621 256.621C162.02 256.621 163.965 258.566 163.965 260.965C163.965 263.365 162.02 265.31 159.621 265.31C157.221 265.31 155.276 263.365 155.276 260.965C155.276 258.566 157.221 256.621 159.621 256.621Z" fill="#A0D778"/>
<path d="M172.655 250.104H181.345C182.544 250.104 183.517 249.131 183.517 247.931V239.241C183.517 238.042 182.544 237.069 181.345 237.069H172.655C171.456 237.069 170.483 238.042 170.483 239.241V247.931C170.483 249.131 171.456 250.104 172.655 250.104Z" fill="#FF6469"/>
<path d="M190.035 250.104H198.724C199.924 250.104 200.897 249.131 200.897 247.931V239.241C200.897 238.042 199.924 237.069 198.724 237.069H190.035C188.835 237.069 187.862 238.042 187.862 239.241V247.931C187.862 249.131 188.835 250.104 190.035 250.104ZM194.379 239.241C196.779 239.241 198.724 241.187 198.724 243.586C198.724 245.986 196.779 247.931 194.379 247.931C191.98 247.931 190.035 245.986 190.035 243.586C190.035 241.187 191.98 239.241 194.379 239.241Z" fill="#00DCCD"/>
<path d="M155.276 250.104H163.965C165.165 250.104 166.138 249.131 166.138 247.931V239.241C166.138 238.042 165.165 237.069 163.965 237.069H155.276C154.076 237.069 153.103 238.042 153.103 239.241V247.931C153.104 249.131 154.076 250.104 155.276 250.104Z" fill="#FFDC69"/>
<path d="M159.621 265.31C162.02 265.31 163.965 263.365 163.965 260.965C163.965 258.566 162.02 256.621 159.621 256.621C157.221 256.621 155.276 258.566 155.276 260.965C155.276 263.365 157.221 265.31 159.621 265.31Z" fill="#FFDC69"/>
<path d="M177 310.931C179.4 310.931 181.345 308.986 181.345 306.586C181.345 304.187 179.4 302.241 177 302.241C174.6 302.241 172.655 304.187 172.655 306.586C172.655 308.986 174.6 310.931 177 310.931Z" fill="#FFDC69"/>
<path d="M194.379 247.931C196.779 247.931 198.724 245.986 198.724 243.586C198.724 241.187 196.779 239.241 194.379 239.241C191.98 239.241 190.035 241.187 190.035 243.586C190.035 245.986 191.98 247.931 194.379 247.931Z" fill="#FF6469"/>
<path d="M174.827 263.138H179.172C180.372 263.138 181.345 262.165 181.345 260.965C181.345 259.766 180.372 258.793 179.172 258.793H174.827C173.628 258.793 172.655 259.766 172.655 260.965C172.655 262.165 173.628 263.138 174.827 263.138Z" fill="#468CBE"/>
<path d="M192.207 280.517H196.552C197.751 280.517 198.724 279.544 198.724 278.345C198.724 277.145 197.751 276.172 196.552 276.172H192.207C191.007 276.172 190.034 277.145 190.034 278.345C190.035 279.544 191.007 280.517 192.207 280.517Z" fill="#FF6469"/>
<path d="M157.448 280.517H161.793C162.993 280.517 163.966 279.544 163.966 278.345C163.966 277.145 162.993 276.172 161.793 276.172H157.448C156.249 276.172 155.276 277.145 155.276 278.345C155.276 279.544 156.249 280.517 157.448 280.517Z" fill="white"/>
<path d="M168.31 295.724C169.51 295.724 170.483 294.752 170.483 293.552C170.483 292.352 169.51 291.379 168.31 291.379C167.111 291.379 166.138 292.352 166.138 293.552C166.138 294.752 167.111 295.724 168.31 295.724Z" fill="#464655"/>
<path d="M177 295.724C178.2 295.724 179.173 294.752 179.173 293.552C179.173 292.352 178.2 291.379 177 291.379C175.8 291.379 174.827 292.352 174.827 293.552C174.827 294.752 175.8 295.724 177 295.724Z" fill="white"/>
<path d="M185.69 295.724C186.889 295.724 187.862 294.752 187.862 293.552C187.862 292.352 186.889 291.379 185.69 291.379C184.49 291.379 183.517 292.352 183.517 293.552C183.517 294.752 184.49 295.724 185.69 295.724Z" fill="white"/>
<path d="M115.95 328.789H45.3286C40.7269 328.789 36.9964 325.051 36.9964 320.441C36.9964 315.831 40.7269 312.093 45.3286 312.093H115.95C112.27 317.048 112.27 323.834 115.95 328.789Z" fill="#FFF7E8"/>
<path d="M115.95 312.093H108.606C104.926 317.048 104.926 323.834 108.606 328.789H115.95C112.269 323.834 112.269 317.048 115.95 312.093Z" fill="#FFF1D6"/>
<path d="M118.296 335.623H45.531C37.1751 335.623 30.377 328.812 30.377 320.441C30.377 312.069 37.1751 305.259 45.531 305.259H118.296C120.133 305.259 121.623 306.751 121.623 308.593C121.623 310.434 120.133 311.926 118.296 311.926H45.531C40.8446 311.926 37.0319 315.746 37.0319 320.441C37.0319 325.136 40.8446 328.956 45.531 328.956H118.296C120.133 328.956 121.623 330.449 121.623 332.29C121.623 334.131 120.133 335.623 118.296 335.623Z" fill="#FF7893"/>
<path d="M115.95 267.907H45.3286C40.7269 267.907 36.9964 264.169 36.9964 259.559C36.9964 254.949 40.7269 251.212 45.3286 251.212H115.95C112.27 256.166 112.27 262.952 115.95 267.907Z" fill="#FFF7E8"/>
<path d="M115.95 251.211H108.606C104.926 256.166 104.926 262.952 108.606 267.907H115.95C112.269 262.952 112.269 256.166 115.95 251.211Z" fill="#FFF1D6"/>
<path d="M118.296 274.741H45.531C37.1751 274.741 30.377 267.931 30.377 259.559C30.377 251.188 37.1751 244.377 45.531 244.377H118.296C120.133 244.377 121.623 245.87 121.623 247.71C121.623 249.551 120.133 251.044 118.296 251.044H45.531C40.8446 251.044 37.0319 254.864 37.0319 259.559C37.0319 264.254 40.8446 268.074 45.531 268.074H118.296C120.133 268.074 121.623 269.566 121.623 271.407C121.623 273.249 120.133 274.741 118.296 274.741Z" fill="#FF9E5E"/>
<path d="M36.0502 281.729H106.671C111.273 281.729 115.003 285.466 115.003 290.077C115.003 294.687 111.273 298.424 106.671 298.424H36.0502C39.7305 293.47 39.7305 286.683 36.0502 281.729Z" fill="#FFF7E8"/>
<path d="M33.7044 274.894H106.469C114.825 274.894 121.623 281.705 121.623 290.077C121.623 298.448 114.825 305.259 106.469 305.259H33.7044C31.8666 305.259 30.377 303.766 30.377 301.925C30.377 300.084 31.8666 298.591 33.7044 298.591H106.469C111.155 298.591 114.968 294.771 114.968 290.076C114.968 285.381 111.155 281.561 106.469 281.561H33.7044C31.8666 281.561 30.377 280.069 30.377 278.228C30.377 276.387 31.8666 274.894 33.7044 274.894Z" fill="#59A1A5"/>
<path d="M106.469 274.894H99.1253C105.821 274.894 111.513 279.269 113.512 285.315C114.431 286.675 114.968 288.314 114.968 290.077C114.968 291.839 114.431 293.478 113.512 294.838C111.513 300.884 105.821 305.259 99.1253 305.259H106.469C114.825 305.259 121.623 298.448 121.623 290.077C121.623 281.705 114.825 274.894 106.469 274.894Z" fill="#419296"/>
<path d="M86.8473 290.077H98.9415V318.617L93.0004 312.877L86.8473 318.617V290.077Z" fill="#FFD88F"/>
<path d="M92.8943 290.077V312.976L93.0004 312.877L98.9415 318.617V290.077H92.8943Z" fill="#FFC963"/>
<path d="M123 271.407C123 268.81 120.89 266.697 118.296 266.697H116.778C115.33 264.589 114.566 262.132 114.566 259.559C114.566 256.987 115.33 254.529 116.778 252.421H118.296C124.35 252.421 124.391 243 118.296 243H64.2417C62.4614 243 62.4614 245.754 64.2417 245.754H118.296C120.737 245.754 120.848 249.667 118.296 249.667H45.531C40.0852 249.667 35.6549 254.104 35.6549 259.559C35.6549 265.013 40.0854 269.451 45.531 269.451H118.296C120.784 269.451 120.808 273.517 118.296 273.517H106.469H45.531C41.8708 273.517 38.4156 272.055 35.8018 269.4C33.1914 266.749 31.7539 263.254 31.7539 259.559C31.7539 251.947 37.9342 245.754 45.531 245.754H56.905C58.6853 245.754 58.6853 243 56.905 243H45.531C36.4157 243 29 250.428 29 259.559C29 263.981 30.7186 268.162 33.8392 271.332C34.6541 272.16 35.5389 272.889 36.4778 273.517H33.7044C31.1104 273.518 29 275.63 29 278.228C29 280.825 31.1104 282.939 33.7044 282.939H35.2218C36.67 285.046 37.4336 287.504 37.4336 290.077C37.4336 292.649 36.67 295.107 35.2218 297.215H33.7044C31.1104 297.215 29 299.328 29 301.925C29 304.522 31.1104 306.636 33.7044 306.636H36.413C31.9491 309.604 29 314.683 29 320.441C29 329.572 36.4157 337 45.531 337H118.296C124.35 337 124.391 327.579 118.296 327.579H116.778C115.33 325.471 114.566 323.013 114.566 320.441C114.566 317.868 115.33 315.411 116.778 313.303H118.296C124.35 313.303 124.391 303.882 118.296 303.882H115.587C120.051 300.914 123 295.834 123 290.077C123 284.319 120.051 279.24 115.587 276.271H118.296C120.846 276.271 123 274.044 123 271.407ZM38.4088 259.559C38.4088 255.623 41.6039 252.421 45.531 252.421H113.567C112.414 254.611 111.813 257.04 111.813 259.559C111.813 262.078 112.414 264.507 113.567 266.697H45.531C41.6037 266.697 38.4088 263.495 38.4088 259.559ZM38.4332 282.939H106.469C110.396 282.939 113.591 286.141 113.591 290.077C113.591 294.012 110.396 297.215 106.469 297.215H100.318V291.454H103.61C105.39 291.454 105.39 288.7 103.61 288.7H56.1877C54.4074 288.7 54.4074 291.454 56.1877 291.454H85.4703V297.215H38.4332C39.5856 295.025 40.1875 292.596 40.1875 290.077C40.1875 287.557 39.5855 285.129 38.4332 282.939ZM88.2242 291.454H97.5646V315.372L93.9573 311.887C93.4304 311.378 92.5972 311.371 92.0613 311.87L88.2244 315.449V291.454H88.2242ZM33.7044 303.882C32.6289 303.882 31.7539 303.004 31.7539 301.925C31.7539 300.846 32.6289 299.969 33.7044 299.969H85.4703V303.882H33.7044ZM113.567 327.579H96.9297C95.1494 327.579 95.1494 330.333 96.9297 330.333H118.296C120.737 330.333 120.848 334.246 118.296 334.246H45.531C37.9342 334.246 31.7539 328.053 31.7539 320.441C31.7539 312.829 37.9342 306.636 45.531 306.636H85.4703V310.549H45.531C40.0852 310.549 35.6549 314.987 35.6549 320.441C35.6549 325.895 40.0854 330.333 45.531 330.333H89.5813C91.3617 330.333 91.3617 327.579 89.5813 327.579H45.531C41.6037 327.579 38.4088 324.377 38.4088 320.441C38.4088 316.505 41.6039 313.303 45.531 313.303H85.4703V318.617C85.4703 319.797 86.9233 320.429 87.7865 319.624L92.9839 314.776L97.9848 319.607C98.8627 320.456 100.318 319.794 100.318 318.617V313.303H113.567C112.415 315.493 111.813 317.921 111.813 320.441C111.813 322.96 112.415 325.389 113.567 327.579ZM118.296 306.636C120.737 306.636 120.848 310.549 118.296 310.549H100.318V306.636H106.469H118.296ZM120.246 290.077C120.246 297.689 114.066 303.882 106.469 303.882H100.318V299.969H106.469C111.915 299.969 116.345 295.531 116.345 290.077C116.345 284.622 111.915 280.185 106.469 280.185H33.7044C32.6289 280.185 31.7539 279.307 31.7539 278.228C31.7539 277.149 32.6289 276.271 33.7044 276.271H45.531H106.469C114.066 276.271 120.246 282.464 120.246 290.077Z" fill="black"/>
<path d="M10 18.5C4.47716 18.5 0 22.9772 0 28.5V191.312C0 196.835 4.47715 201.312 10 201.312H230C235.523 201.312 240 196.835 240 191.312V28.5C240 22.9772 235.523 18.5 230 18.5H10Z" fill="#5F55AF"/>
<path d="M120 28.5C120 22.9772 124.477 18.5 130 18.5H230C235.523 18.5 240 22.9772 240 28.5V191.312C240 196.835 235.523 201.312 230 201.312H130C124.477 201.312 120 196.835 120 191.312V28.5Z" fill="#453D83"/>
<path d="M141.375 145.062L120 163.344L110.579 171.5L101.296 160.813L119.718 145.062L101.296 129.312L110.579 118.625L120 126.781L141.375 145.062Z" fill="#64E1DC"/>
<path d="M59.1769 171.492L28.3397 145.062L59.1769 118.633L68.3231 129.304L49.9416 145.062L68.3231 160.821L59.1769 171.492Z" fill="#64E1DC"/>
<path d="M70.9579 171.459L84.9893 115.217L98.6231 118.619L84.5917 174.86L70.9579 171.459Z" fill="#64E1DC"/>
<path d="M84.8438 60.6875H98.9062V74.75H84.8438V60.6875Z" fill="#FFDA2D"/>
<path d="M112.969 60.6875H127.031V74.75H112.969V60.6875Z" fill="#FFDA2D"/>
<path d="M169.219 88.8125H183.281V102.875H169.219V88.8125Z" fill="#9CDD05"/>
<path d="M197.344 88.8125H211.406V102.875H197.344V88.8125Z" fill="#9CDD05"/>
<path d="M169.219 145.062H183.281V159.125H169.219V145.062Z" fill="#00C8C8"/>
<path d="M197.344 145.062H211.406V159.125H197.344V145.062Z" fill="#00C8C8"/>
<path d="M141.094 60.6875H211.406V74.75H141.094V60.6875Z" fill="#00C8C8"/>
<path d="M155.156 116.938H169.219V131H155.156V116.938Z" fill="#FDBF00"/>
<path d="M183.281 116.938H211.406V131H183.281V116.938Z" fill="#FDBF00"/>
<path d="M28.5938 60.6875H70.7812V74.75H28.5938V60.6875Z" fill="#FFDA2D"/>
<path d="M84.8438 88.8125H155.156V102.875H84.8438V88.8125Z" fill="#FF80AC"/>
<path d="M42.6562 88.8125H70.7812V102.875H42.6562V88.8125Z" fill="#C3EA21"/>
<path d="M120 60.6875H127.031V74.75H120V60.6875Z" fill="#FDBF00"/>
<path d="M120 126.781L141.375 145.062L120 163.344V126.781Z" fill="#00C8C8"/>
<path d="M120 88.8125H155.156V102.875H120V88.8125Z" fill="#FF3980"/>
<g clip-path="url(#clip0)">
<path d="M568.144 56.8163L559.987 49.5319L543.366 55.9196L541.104 65.2523L532.413 104.682L560.637 116.978L564.139 112.456C568.972 102.545 571.682 91.4078 571.682 79.6361C571.682 71.6802 570.437 64.0145 568.144 56.8163Z" fill="#FE7D43"/>
<path d="M539.085 99.8982L529.18 104.683L503.713 122.62L515.064 147.943L523.167 149.951V149.954C541.274 143.22 555.845 129.478 564.24 112.248L539.085 99.8982Z" fill="#EE6161"/>
<path d="M513.467 123.344L508.064 119.556L475.773 114.653L460.259 139.577L467.401 148.571V148.574C476.484 152.481 486.494 154.644 497.008 154.644C506.209 154.644 515.021 152.989 523.167 149.954V149.951L513.467 123.344Z" fill="#C2A1D5"/>
<path d="M477.261 114.015L459.314 85.8208L427.998 95.5095V109.076C435.556 126.774 449.725 140.974 467.4 148.573V148.57L478.749 122.62L477.261 114.015Z" fill="#8AC9FE"/>
<path d="M435.26 43.8842L426.757 53.3072H426.754C423.68 61.5004 422 70.3726 422 79.6364C422 90.0879 424.138 100.037 427.998 109.077H428.001L454.125 98.1358L457.541 90.2901L459.591 51.6976L435.26 43.8842Z" fill="#75CDD5"/>
<path d="M479.458 12.092H464.349C447.097 20.4494 433.532 35.2185 426.754 53.3072H426.757L453.209 63.4207L470.505 54.6647L493.378 34.0893L479.458 12.092Z" fill="#6CF5C2"/>
<path d="M541.439 65.2526L540.053 59.0917L522.978 63.4207L522.058 71.3012C522.933 73.9195 523.404 76.7243 523.404 79.6364C523.404 83.6667 522.5 87.4821 520.886 90.8965L521.256 97.1841L532.413 103.121L539.085 99.8982C542.042 93.7707 543.7 86.8978 543.7 79.6364C543.7 74.6176 542.904 69.7851 541.439 65.2526Z" fill="#FD6930"/>
<path d="M520.886 90.8965C518.002 97.0019 512.848 101.822 506.512 104.266L504.076 108.848L509.153 121.848L513.467 123.344C524.721 119.105 533.902 110.65 539.085 99.8982L520.886 90.8965Z" fill="#E94444"/>
<path d="M506.512 104.266C503.565 105.407 500.359 106.032 497.008 106.032C493.42 106.032 490.002 105.318 486.885 104.017L481.558 104.594L475.222 117.511L478.749 122.62C484.358 125.008 490.53 126.329 497.008 126.329C502.801 126.329 508.347 125.274 513.467 123.344L506.512 104.266Z" fill="#A274BF"/>
<path d="M472.852 90.2901L468.684 87.2765L455.083 91.9896L454.125 98.1358C458.872 109.13 467.722 117.933 478.749 122.62L486.885 104.017C480.628 101.421 475.584 96.4776 472.852 90.2901Z" fill="#26A6FE"/>
<path d="M532.967 13.7976C522.292 7.95435 510.037 4.62846 497.008 4.62846C485.299 4.62846 474.219 7.31002 464.349 12.092L476.512 37.6758L488.597 43.0952L526.619 49.5322L537.682 26.0551L532.967 13.7976Z" fill="#FEE97D"/>
<path d="M579.888 51.0205C580.263 52.1038 579.663 53.2819 578.57 53.6231L568.337 56.8163L548.953 62.8648C544.62 49.397 535.214 38.2064 522.978 31.5483L532.826 13.7976L538.037 4.40421C538.587 3.40928 539.85 3.05869 540.833 3.63037C558.95 14.1324 572.964 30.9261 579.888 51.0205Z" fill="#FEC165"/>
<path d="M470.612 79.6364C470.612 76.4874 471.162 73.4679 472.176 70.6695L471.943 59.6668H460.624L453.209 63.4207C451.339 68.4712 450.316 73.9354 450.316 79.6364C450.316 86.2093 451.674 92.4631 454.125 98.1358L472.852 90.2901C471.412 87.0336 470.612 83.4298 470.612 79.6364Z" fill="#2ABCC8"/>
<path d="M485.987 40.7373L476.512 37.6755C465.795 42.9123 457.384 52.1383 453.209 63.4204L472.176 70.6692C474.488 64.27 479.2 59.0206 485.23 56.0106V56.0074L489.574 51.1152L485.987 40.7373Z" fill="#00F2A6"/>
<path d="M519.231 38.5602L519.227 38.5596C512.62 34.9781 505.052 32.9444 497.008 32.9444C489.655 32.9444 482.7 34.6437 476.512 37.6758L485.23 56.0109C488.774 54.2421 492.776 53.2409 497.008 53.2409C501.48 53.2409 505.691 54.3527 509.38 56.3173L516.023 56.6442L522.523 47.9779L519.231 38.5602Z" fill="#FEDF30"/>
<path d="M548.953 62.8648L541.297 65.2526L522.058 71.3012C519.907 64.8294 515.208 59.4148 509.271 56.2594L519.09 38.5602L522.978 31.5483C535.214 38.2064 544.62 49.397 548.953 62.8648Z" fill="#FDB441"/>
</g>
<defs>
<clipPath id="clip0">
<rect width="158" height="158" fill="white" transform="translate(422)"/>
</clipPath>
</defs>
</svg>
