<svg width="64" height="66" viewBox="0 0 64 66" fill="none" xmlns="http://www.w3.org/2000/svg">
<path d="M34.7573 3.01079C32.8069 1.9381 30.4431 1.9381 28.4927 3.01079L6.10462 15.3235C4.02748 16.4658 2.73695 18.6484 2.73695 21.0189V45.2311C2.73695 47.6016 4.02747 49.7842 6.10462 50.9265L28.4927 63.2392C30.4431 64.3119 32.8069 64.3119 34.7573 63.2392L57.1454 50.9265C59.2225 49.7842 60.5131 47.6016 60.5131 45.2311V21.0189C60.5131 18.6484 59.2225 16.4658 57.1454 15.3235L34.7573 3.01079Z" stroke="white" stroke-width="3"/>
<path d="M35.025 25.625C34.125 25.3083 33.2 25.15 32.25 25.15C31.3 25.15 30.4667 25.425 29.75 25.975C29.0333 26.5083 28.675 27.3083 28.675 28.375C28.675 29.4083 29.1167 30.2 30 30.75C30.4833 31.05 30.875 31.2667 31.175 31.4C31.4917 31.5333 31.9417 31.7083 32.525 31.925C33.125 32.1417 33.5333 32.3 33.75 32.4C33.9667 32.4833 34.2833 32.625 34.7 32.825C35.1333 33.0083 35.45 33.175 35.65 33.325C35.8667 33.475 36.125 33.6833 36.425 33.95C36.725 34.2167 36.95 34.4833 37.1 34.75C37.4667 35.4333 37.65 36.175 37.65 36.975C37.65 38.3917 37.075 39.55 35.925 40.45C34.775 41.35 33.2833 41.8 31.45 41.8C30.05 41.8 28.7417 41.5667 27.525 41.1C26.925 40.8833 26.4333 40.5833 26.05 40.2C25.6667 39.8167 25.475 39.375 25.475 38.875C25.475 38.0583 26.0667 37.5 27.25 37.2C27.4333 38.2 27.7833 39.0083 28.3 39.625C28.8167 40.2417 29.35 40.65 29.9 40.85C30.4667 41.05 31.15 41.15 31.95 41.15C32.7667 41.15 33.5333 40.8917 34.25 40.375C34.9667 39.8417 35.325 38.975 35.325 37.775C35.325 36.8583 34.9083 36.1083 34.075 35.525C33.4083 35.075 32.5833 34.65 31.6 34.25C30.6333 33.85 29.9833 33.5833 29.65 33.45C29.3167 33.3 28.8833 33.075 28.35 32.775C27.8333 32.4583 27.45 32.15 27.2 31.85C26.55 31.0667 26.225 30.1667 26.225 29.15C26.225 27.5833 26.7833 26.4 27.9 25.6C29.0167 24.8 30.5583 24.4 32.525 24.4C33.7083 24.4 35.0833 24.5333 36.65 24.8V28.475H35.875L35.025 25.625Z" fill="white"/>
</svg>
