<svg width="88" height="88" viewBox="0 0 88 88" fill="none" xmlns="http://www.w3.org/2000/svg">
<rect width="88" height="88" fill="white"/>
<path d="M21.576 64.0629C21.4805 63.9659 21.3667 63.8887 21.2413 63.8359C21.1158 63.783 20.9812 63.7556 20.845 63.755C20.7089 63.7545 20.574 63.7809 20.4481 63.8327C20.3223 63.8846 20.2079 63.9609 20.1117 64.0571C20.0154 64.1534 19.9392 64.2678 19.8873 64.3937C19.8355 64.5195 19.8091 64.6544 19.8097 64.7906C19.8103 64.9267 19.8378 65.0614 19.8907 65.1868C19.9435 65.3123 20.0207 65.426 20.1178 65.5215L22.6651 68.0688C22.7606 68.1658 22.8744 68.243 22.9998 68.2959C23.1253 68.3487 23.26 68.3762 23.3961 68.3767C23.5322 68.3773 23.6671 68.3509 23.793 68.299C23.9189 68.2471 24.0332 68.1709 24.1295 68.0746C24.2257 67.9783 24.302 67.864 24.3538 67.7381C24.4056 67.6122 24.432 67.4773 24.4314 67.3412C24.4309 67.205 24.4033 67.0704 24.3505 66.9449C24.2976 66.8195 24.2204 66.7057 24.1233 66.6103L21.576 64.0629Z" fill="#0000FF"/>
<path d="M22.116 41.5422C22.3103 41.7312 22.5712 41.8362 22.8423 41.8343C23.1134 41.8325 23.3728 41.7239 23.5645 41.5323C23.7561 41.3406 23.8646 41.0811 23.8665 40.81C23.8683 40.539 23.7633 40.2781 23.5742 40.0838L12.7399 29.2495L16.2912 25.7376L19.2239 28.6703L32.5995 42.0459L11.4245 63.2209C11.1692 63.4763 10.9666 63.7795 10.8284 64.1131C10.6902 64.4468 10.619 64.8044 10.619 65.1655C10.619 65.5267 10.6902 65.8843 10.8284 66.2179C10.9666 66.5516 11.1692 66.8548 11.4245 67.1101L21.0753 76.7609C21.5915 77.2758 22.2908 77.5649 23.0198 77.5649C23.7489 77.5649 24.4482 77.2758 24.9643 76.7609L46.1393 55.5859L61.4049 70.8515C61.4489 70.8946 61.4966 70.9336 61.5476 70.968C61.5615 70.9778 61.5756 70.9869 61.59 70.9959C61.6343 71.0237 61.6806 71.0481 61.7286 71.0689C61.736 71.072 61.743 71.0763 61.7506 71.0794C61.7953 71.0973 61.8413 71.112 61.8881 71.1236L72.9053 73.838C73.0776 73.8804 73.258 73.8777 73.4289 73.83C73.5999 73.7824 73.7556 73.6914 73.8811 73.5659C74.0066 73.4404 74.0976 73.2846 74.1453 73.1137C74.193 72.9427 74.1957 72.7623 74.1532 72.59L71.4387 61.5728C71.4271 61.526 71.4124 61.4801 71.3945 61.4353C71.3914 61.4278 71.3871 61.4207 71.3838 61.4131C71.3631 61.3652 71.3387 61.319 71.3109 61.2748C71.302 61.2603 71.2927 61.2463 71.2829 61.2322C71.2485 61.1812 71.2094 61.1335 71.1664 61.0895L55.901 45.8241L76.9485 24.7782C77.2038 24.5228 77.4064 24.2196 77.5446 23.886C77.6828 23.5523 77.754 23.1947 77.754 22.8336C77.754 22.4724 77.6828 22.1148 77.5446 21.7812C77.4064 21.4475 77.2038 21.1443 76.9485 20.889L67.2977 11.238C66.7815 10.7231 66.0822 10.434 65.3532 10.434C64.6241 10.434 63.9248 10.7231 63.4087 11.238L57.8763 16.7702L42.3617 32.285L25.3397 15.2625C25.1463 15.0691 24.884 14.9605 24.6105 14.9605C24.337 14.9605 24.0748 15.0691 23.8814 15.2625L23.3767 15.7671L21.9801 14.3471C21.5012 13.8572 20.929 13.4683 20.2972 13.2033C19.6655 12.9383 18.987 12.8026 18.302 12.8043H18.2982C17.277 12.8044 16.2787 13.1073 15.4296 13.6747C14.5805 14.2421 13.9188 15.0485 13.528 15.992C13.1372 16.9355 13.035 17.9736 13.2342 18.9752C13.4335 19.9768 13.9253 20.8968 14.6474 21.6189L16.0772 23.0484L10.5531 28.5122C10.4565 28.6077 10.3797 28.7214 10.3272 28.8468C10.2746 28.9721 10.2474 29.1066 10.247 29.2425C10.2466 29.3784 10.2731 29.5131 10.3249 29.6387C10.3768 29.7644 10.4529 29.8785 10.549 29.9746L22.116 41.5422ZM68.9795 61.8196L62.1347 68.664L21.4117 27.9414L28.2563 21.0966L68.9795 61.8196ZM23.5065 75.3034C23.3774 75.4321 23.2025 75.5044 23.0202 75.5044C22.8379 75.5044 22.663 75.4321 22.5339 75.3034L12.8831 65.6526C12.8192 65.5888 12.7686 65.513 12.734 65.4296C12.6995 65.3462 12.6817 65.2568 12.6817 65.1665C12.6817 65.0762 12.6995 64.9868 12.734 64.9034C12.7686 64.82 12.8192 64.7442 12.8831 64.6803L27.3149 50.2485L31.9212 54.8547C32.0166 54.9518 32.1304 55.0289 32.2558 55.0818C32.3813 55.1346 32.516 55.1621 32.6521 55.1627C32.7882 55.1632 32.9231 55.1368 33.049 55.0849C33.1749 55.0331 33.2892 54.9568 33.3855 54.8605C33.4817 54.7643 33.558 54.6499 33.6098 54.524C33.6616 54.3981 33.688 54.2632 33.6874 54.1271C33.6869 53.991 33.6593 53.8563 33.6065 53.7309C33.5536 53.6054 33.4764 53.4917 33.3793 53.3962L28.7731 48.79L34.0584 43.5048L44.6817 54.1279L23.5065 75.3034ZM64.1568 69.5588L69.8741 63.8417L71.7432 71.428L64.1568 69.5588ZM48.1752 29.3882L52.7815 33.9944C52.8769 34.0915 52.9907 34.1686 53.1161 34.2215C53.2416 34.2743 53.3763 34.3018 53.5124 34.3024C53.6485 34.3029 53.7834 34.2765 53.9093 34.2246C54.0352 34.1728 54.1495 34.0965 54.2458 34.0002C54.342 33.904 54.4183 33.7896 54.4701 33.6637C54.5219 33.5378 54.5483 33.4029 54.5477 33.2668C54.5472 33.1307 54.5196 32.996 54.4668 32.8706C54.4139 32.7451 54.3367 32.6314 54.2396 32.5359L49.6334 27.9297L58.6053 18.9578L61.3314 21.6839C61.4267 21.7818 61.5404 21.8598 61.6661 21.9133C61.7918 21.9669 61.9268 21.9949 62.0634 21.9958C62.2 21.9968 62.3354 21.9705 62.4618 21.9187C62.5882 21.8668 62.703 21.7904 62.7996 21.6938C62.8962 21.5972 62.9726 21.4824 63.0245 21.356C63.0763 21.2296 63.1025 21.0942 63.1016 20.9576C63.1007 20.821 63.0726 20.6859 63.019 20.5602C62.9655 20.4346 62.8875 20.3208 62.7896 20.2255L60.0634 17.4998L64.8667 12.6966C64.9958 12.5679 65.1706 12.4956 65.3529 12.4956C65.5352 12.4956 65.71 12.5679 65.8391 12.6966L75.4901 22.3473C75.6188 22.4764 75.691 22.6512 75.691 22.8335C75.691 23.0157 75.6188 23.1906 75.4901 23.3196L54.4433 44.3666L43.8201 33.7433L48.1752 29.3882ZM26.7981 19.6382L19.9533 26.483L17.7657 24.2954L24.6105 17.4506L26.7981 19.6382ZM16.1062 20.1609C15.6726 19.7273 15.3772 19.1747 15.2575 18.5732C15.1379 17.9717 15.1993 17.3481 15.434 16.7815C15.6686 16.2149 16.0661 15.7306 16.576 15.3898C17.086 15.0491 17.6855 14.8672 18.2989 14.8672H18.3011C18.7125 14.8662 19.1199 14.9477 19.4992 15.1069C19.8785 15.266 20.2221 15.4996 20.5097 15.7937L21.9191 17.2258L17.7375 21.4065L17.5433 21.5985L16.1062 20.1609Z" fill="#0000FF"/>
</svg>
